<svg width="17" height="17" viewBox="0 0 17 17" fill="none" xmlns="http://www.w3.org/2000/svg">
<g clip-path="url(#clip0_567_140)">
<path d="M7.22168 10.6562C7.08907 10.6562 6.96189 10.709 6.86813 10.8027C6.77436 10.8965 6.72168 11.0237 6.72168 11.1562C6.72168 11.2888 6.77436 11.416 6.86813 11.5098C6.96189 11.6035 7.08907 11.6562 7.22168 11.6562H10.2217C10.3543 11.6562 10.4815 11.6035 10.5752 11.5098C10.669 11.416 10.7217 11.2888 10.7217 11.1562C10.7217 11.0237 10.669 10.8965 10.5752 10.8027C10.4815 10.709 10.3543 10.6562 10.2217 10.6562H7.22168ZM2.22168 4.65625C2.08907 4.65625 1.96189 4.70893 1.86813 4.8027C1.77436 4.89646 1.72168 5.02364 1.72168 5.15625C1.72168 5.28886 1.77436 5.41604 1.86813 5.5098C1.96189 5.60357 2.08907 5.65625 2.22168 5.65625H15.2217C15.3543 5.65625 15.4815 5.60357 15.5753 5.5098C15.669 5.41604 15.7217 5.28886 15.7217 5.15625C15.7217 5.02364 15.669 4.89646 15.5753 4.8027C15.4815 4.70893 15.3543 4.65625 15.2217 4.65625H2.22168ZM4.72168 7.65625C4.58907 7.65625 4.46189 7.70893 4.36813 7.8027C4.27436 7.89646 4.22168 8.02364 4.22168 8.15625C4.22168 8.28886 4.27436 8.41604 4.36813 8.5098C4.46189 8.60357 4.58907 8.65625 4.72168 8.65625H12.7217C12.8543 8.65625 12.9815 8.60357 13.0753 8.5098C13.169 8.41604 13.2217 8.28886 13.2217 8.15625C13.2217 8.02364 13.169 7.89646 13.0753 7.8027C12.9815 7.70893 12.8543 7.65625 12.7217 7.65625H4.72168Z" fill="#4D4D4D"/>
</g>
<defs>
<clipPath id="clip0_567_140">
<rect width="16" height="16" fill="white" transform="translate(0.72168 0.15625)"/>
</clipPath>
</defs>
</svg>
