<svg width="282" height="28" viewBox="0 0 282 28" fill="none" xmlns="http://www.w3.org/2000/svg">
<g clip-path="url(#clip0_512_790)">
<path fill-rule="evenodd" clip-rule="evenodd" d="M0.994141 0.0761719H86.1517V27.17H0.994141V0.0761719Z" fill="#242424"/>
<path fill-rule="evenodd" clip-rule="evenodd" d="M12.2295 13.71L16.0999 9.83904L12.2295 5.96826C13.1934 5.96826 14.1573 5.96826 15.121 5.96826L18.9918 9.83904L15.1206 13.71C14.157 13.71 13.193 13.71 12.2295 13.71ZM7.13135 13.71L11.0025 9.83904L7.13172 5.96826C8.09604 5.96826 9.05929 5.96826 10.0236 5.96826L13.8941 9.83904L10.0233 13.71C9.05929 13.71 8.09568 13.71 7.13135 13.71Z" fill="white"/>
<path fill-rule="evenodd" clip-rule="evenodd" d="M43.0709 21.3145C43.8153 21.3145 44.3975 20.9425 44.3975 20.1909C44.3975 19.5339 43.8087 19.2972 43.2874 19.1346C43.2668 19.1278 43.2403 19.1211 43.2194 19.1143C42.8267 18.9857 42.4816 18.8773 42.4816 18.6339C42.4816 18.4102 42.6644 18.2611 42.9826 18.2611C43.2807 18.2611 43.6464 18.3901 43.9914 18.5998L44.3164 18.0177C43.9373 17.7671 43.4497 17.6112 43.0028 17.6112C42.2924 17.6112 41.7304 18.0244 41.7304 18.7011C41.7304 19.3986 42.3194 19.615 42.8473 19.7709C42.8674 19.7777 42.888 19.7844 42.9082 19.7912C43.3008 19.9063 43.6464 20.0009 43.6464 20.2649C43.6464 20.5158 43.4429 20.6646 43.0911 20.6646C42.7254 20.6646 42.3054 20.5158 41.9196 20.2245L41.5542 20.7798C42.001 21.1316 42.5628 21.3145 43.0709 21.3145ZM46.8685 21.3284C47.5254 21.3284 47.9925 21.064 48.3312 20.6579L47.8504 20.2313C47.5658 20.5091 47.2816 20.6579 46.882 20.6579C46.3539 20.6579 45.9415 20.3329 45.8533 19.7508H48.4801C48.4864 19.71 48.4936 19.5747 48.4936 19.5205C48.4936 18.4914 47.9181 17.5977 46.7806 17.5977C45.7583 17.5977 45.034 18.4372 45.034 19.4595C45.034 20.5764 45.8327 21.3284 46.8685 21.3284ZM45.8465 19.2089C45.921 18.6541 46.2727 18.2682 46.7739 18.2682C47.3153 18.2682 47.6268 18.681 47.6813 19.2089H45.8465ZM50.9711 21.3284C51.6686 21.3284 52.0817 21.0505 52.4336 20.6579L51.9393 20.1703C51.6824 20.4343 51.3978 20.6172 51.0119 20.6172C50.3826 20.6172 49.9421 20.1026 49.9421 19.4666C49.9421 18.8298 50.3755 18.3153 50.9711 18.3153C51.3844 18.3153 51.6484 18.4985 51.8989 18.7625L52.4066 18.214C52.075 17.8486 51.6551 17.5977 50.9779 17.5977C49.9085 17.5977 49.1232 18.451 49.1232 19.4666C49.1232 20.4953 49.9085 21.3284 50.9711 21.3284ZM54.4172 21.3212C54.9721 21.3212 55.3042 21.0303 55.5341 20.6915V21.2469H56.3534V17.6725H55.5341V19.6898C55.5341 20.2451 55.2024 20.5764 54.7287 20.5764C54.2412 20.5764 53.9637 20.2586 53.9637 19.7033V17.6725H53.1444V19.9471C53.1444 20.7798 53.6118 21.3212 54.4172 21.3212ZM57.3825 21.2469H58.2018V19.8861C58.2018 18.9386 58.7028 18.4712 59.42 18.4712H59.4674V17.6044C58.8382 17.5775 58.425 17.9432 58.2018 18.4779V17.6725H57.3825V21.2469ZM61.695 21.3284C62.3519 21.3284 62.8185 21.064 63.1573 20.6579L62.6765 20.2313C62.3923 20.5091 62.1077 20.6579 61.7083 20.6579C61.1804 20.6579 60.7672 20.3329 60.6793 19.7508H63.3062C63.3129 19.71 63.3196 19.5747 63.3196 19.5205C63.3196 18.4914 62.7446 17.5977 61.6071 17.5977C60.5848 17.5977 59.8601 18.4372 59.8601 19.4595C59.8601 20.5764 60.6591 21.3284 61.695 21.3284ZM60.6726 19.2089C60.7474 18.6541 61.0992 18.2682 61.6 18.2682C62.1418 18.2682 62.4533 18.681 62.5075 19.2089H60.6726ZM65.6215 21.3212C66.2037 21.3212 66.5761 21.0236 66.8401 20.6512V21.2469H67.6593V16.3047H66.8401V18.2274C66.5828 17.8957 66.2105 17.5977 65.6215 17.5977C64.7686 17.5977 63.9631 18.2682 63.9631 19.4528C63.9631 20.6512 64.7821 21.3212 65.6215 21.3212ZM65.8178 20.6104C65.2629 20.6104 64.7888 20.1568 64.7888 19.4666C64.7888 18.7419 65.2558 18.3085 65.8178 18.3085C66.3663 18.3085 66.8535 18.7625 66.8535 19.4528C66.8535 20.1502 66.3663 20.6104 65.8178 20.6104ZM72.7435 21.3212C73.5964 21.3212 74.4091 20.6512 74.4091 19.4666C74.4091 18.2682 73.5899 17.5977 72.7435 17.5977C72.1682 17.5977 71.7957 17.8957 71.5317 18.2682V16.3047H70.7129V21.2469H71.5317V20.6915C71.7823 21.0236 72.1547 21.3212 72.7435 21.3212ZM72.5539 20.6104C71.9988 20.6104 71.5115 20.1568 71.5115 19.4666C71.5115 18.7692 71.9988 18.3085 72.5539 18.3085C73.1096 18.3085 73.5763 18.7625 73.5763 19.4528C73.5763 20.1703 73.1161 20.6104 72.5539 20.6104ZM75.8105 22.3503C76.3855 22.3503 76.7036 22.0795 76.9886 21.3485L78.4101 17.6725H77.5572L76.6296 20.3263L75.6138 17.6725H74.7408L76.2298 21.2469C76.0948 21.5583 75.9526 21.6597 75.7222 21.6597C75.5527 21.6597 75.3905 21.6054 75.2419 21.5243L74.964 22.1338C75.2146 22.2691 75.4652 22.3503 75.8105 22.3503Z" fill="white"/>
<path fill-rule="evenodd" clip-rule="evenodd" d="M30.5327 12.5481C30.8449 12.5481 31.1512 12.4628 31.4178 12.3001C31.9413 11.9815 32.2273 11.4274 32.2273 10.8191C32.2273 10.189 31.9196 9.61494 31.368 9.30048C31.1134 9.15546 30.8259 9.07914 30.5327 9.07914C30.2354 9.07914 29.9442 9.15768 29.6877 9.30766C29.1455 9.62506 28.8493 10.1968 28.8493 10.8191C28.8493 11.4225 29.1267 11.9756 29.6442 12.2963C29.9113 12.462 30.219 12.5481 30.5327 12.5481ZM22.9062 10.1545V7.37103H24.4015C24.7862 7.37103 25.1131 7.51132 25.3849 7.78313L25.3864 7.78456C25.665 8.04934 25.7985 8.37435 25.7985 8.75722C25.7985 9.14311 25.6579 9.46956 25.3856 9.7418C25.1138 10.0139 24.7874 10.1542 24.4015 10.1542L24.1364 10.1545H22.9062ZM22.9062 11.5452H24.4015C24.7769 11.5452 25.1415 11.4735 25.4859 11.3234C25.8168 11.1798 26.1156 10.9817 26.3706 10.7263C26.6259 10.4713 26.8238 10.1726 26.9678 9.84202C27.1177 9.4972 27.1891 9.13256 27.1891 8.75722C27.1891 8.38361 27.1181 8.02055 26.9674 7.67802C26.823 7.34942 26.6245 7.05326 26.3706 6.7993C26.1151 6.5439 25.8164 6.34575 25.4859 6.20179C25.1415 6.05226 24.7766 5.98047 24.4015 5.98047L21.5156 5.98086L21.5159 13.6922L22.9065 13.6919L22.9062 11.5452ZM32.3156 13.0315C31.8306 13.5468 31.1426 13.8217 30.4302 13.8217C28.7513 13.8217 27.5305 12.4695 27.5302 10.8194C27.5302 9.17075 28.7499 7.80553 30.4302 7.80553C31.1444 7.80553 31.831 8.08825 32.3156 8.60545V7.87029H33.6224L33.6229 13.7532H32.3156V13.0315ZM39.201 12.9388C38.7841 13.4462 38.1327 13.6848 37.4724 13.6848C35.7561 13.6848 34.902 12.5021 34.902 10.8646V7.87323H36.2209L36.2213 10.7962C36.2213 11.7736 36.6168 12.4115 37.6429 12.4115C38.7501 12.4115 39.2127 11.6132 39.2127 10.5801L39.2123 7.87323H40.5199L40.5203 12.9339C40.5203 14.6973 39.4284 15.9137 37.6317 15.9137C36.7009 15.9137 35.8118 15.6149 35.0942 15.017L35.0206 14.9554L35.7845 14.1376L35.8477 14.1758C36.4112 14.5164 36.9661 14.6973 37.6317 14.6973C38.614 14.6973 39.201 14.1712 39.201 13.1732V12.9388Z" fill="white"/>
<path fill-rule="evenodd" clip-rule="evenodd" d="M61.6216 9.46105L61.6201 9.46026L61.6624 9.38028C61.6672 9.37167 61.6718 9.36277 61.6761 9.35415C61.6769 9.353 61.6773 9.35185 61.6781 9.35078L61.7197 9.27446L61.7207 9.27489L61.7342 9.25199L61.7436 9.2367L61.7596 9.20942L61.7622 9.20568C61.7742 9.18587 61.7866 9.16677 61.7989 9.14775L61.8048 9.13834C61.8108 9.12901 61.8172 9.11932 61.8235 9.10955L61.8299 9.10015L61.8493 9.07186L61.8542 9.06504C61.8762 9.03324 61.8991 9.00186 61.9227 8.97085L61.9241 8.96855C61.9323 8.95814 61.9402 8.94766 61.948 8.93718L61.9492 8.9361C62.5052 8.21551 63.3566 7.79293 64.2693 7.79293H64.3886C66.0354 7.82625 67.226 9.16526 67.226 10.7953C67.226 12.4434 66.0067 13.8091 64.3262 13.8091C63.6782 13.8091 63.0422 13.5331 62.62 13.045V15.8219H61.3131L61.3128 10.6666H61.3157C61.3315 10.3005 61.4119 9.94042 61.5565 9.60313L61.561 9.59229L61.5722 9.5658L61.5812 9.54598L61.5947 9.51676L61.6071 9.49128L61.6216 9.46105ZM41.8369 5.96865H43.2276L43.228 13.68H41.8373L41.8369 5.96865ZM45.1278 9.83531L48.3395 13.7021H46.5065L43.4096 9.83574L46.5061 5.96865L48.3391 5.96826L45.1278 9.83531ZM49.5218 11.1826C49.5674 12.1047 50.3092 12.5815 51.2029 12.5815C51.8271 12.5815 52.4508 12.4136 52.9874 12.0939L53.0505 12.056L53.7805 12.8428L53.7016 12.9038C52.9762 13.4591 52.1243 13.7979 51.2029 13.7979C49.4391 13.7979 48.1666 12.5665 48.1664 10.7959C48.1664 9.06583 49.3838 7.78216 51.1345 7.78216C52.3177 7.78216 53.2685 8.3494 53.7408 9.44009C53.9434 9.90868 53.9999 10.6321 53.8463 11.1186L53.8264 11.1822L49.5218 11.1826ZM56.0064 11.1822C56.052 12.1047 56.7938 12.5811 57.6875 12.5811C58.3116 12.5811 58.9354 12.4132 59.4719 12.0935L59.5351 12.0557L60.2654 12.8424L60.1857 12.9034C59.4607 13.4587 58.6088 13.7979 57.6875 13.7979C55.9238 13.7979 54.6513 12.5665 54.651 10.7955C54.651 9.0654 55.8688 7.78173 57.6192 7.78173C58.8026 7.78173 59.7532 8.34904 60.2253 9.44009C60.428 9.90825 60.4845 10.6318 60.3312 11.1186L60.3111 11.1819L56.0064 11.1822ZM69.3577 11.1815C69.403 12.1039 70.1452 12.5803 71.0389 12.5803C71.663 12.5803 72.2866 12.4128 72.8231 12.0927L72.8863 12.0554L73.6165 12.842L73.5368 12.9026C72.8117 13.4583 71.9603 13.7971 71.0389 13.7971C69.2747 13.7971 68.0022 12.5658 68.0022 10.7953C68.0022 9.06504 69.2198 7.78137 70.9701 7.78137C72.1536 7.78137 73.1046 8.34861 73.577 9.4393C73.7787 9.90753 73.8361 10.6315 73.6818 11.118L73.6624 11.1815H69.3577ZM62.611 10.7953C62.611 13.1894 65.9072 12.9879 65.9068 10.7953C65.9068 8.60248 62.611 8.40138 62.611 10.7953ZM49.5985 10.1374H52.6217C52.5992 10.0365 52.5626 9.93553 52.5195 9.84472C52.2608 9.29571 51.7474 8.99892 51.1461 8.99892C50.4836 8.99892 49.862 9.35559 49.6384 9.99871C49.6228 10.0444 49.6093 10.0908 49.5985 10.1374ZM56.0831 10.1371H59.1067C59.0838 10.0365 59.0472 9.93553 59.0041 9.84436C58.7454 9.29542 58.232 8.99849 57.6307 8.99849C56.9682 8.99849 56.3467 9.3553 56.1235 9.99871C56.1074 10.0444 56.0943 10.0908 56.0831 10.1371ZM69.4344 10.1368H72.4577C72.4347 10.0358 72.3981 9.93482 72.3551 9.84393C72.0964 9.29507 71.5833 8.99777 70.9816 8.99777C70.3191 8.99777 69.698 9.35451 69.4743 9.99756C69.4587 10.0432 69.4453 10.09 69.4344 10.1368ZM76.0481 8.63737C76.5751 8.05397 77.3074 7.79825 78.1043 7.79825H78.4101V9.10733H77.8451C76.5851 9.10733 76.0603 9.96655 76.0603 11.1399V13.7287H74.7063V7.86214H76.0481V8.63737Z" fill="#B3B3B3"/>
<path fill-rule="evenodd" clip-rule="evenodd" d="M117.633 21.6589L120.379 5.60938H124.762L122.016 21.6589H117.633Z" fill="#242424"/>
<path fill-rule="evenodd" clip-rule="evenodd" d="M137.89 6.00778C137.026 5.69783 135.653 5.34326 133.971 5.34326C129.632 5.34326 126.599 7.51314 126.578 10.6344C126.555 12.9366 128.747 14.2207 130.407 14.9957C132.112 15.7926 132.687 16.2798 132.665 16.9881C132.665 18.0728 131.314 18.56 130.053 18.56C128.304 18.56 127.374 18.3162 125.936 17.7187L125.359 17.4531L124.762 21.0392C125.78 21.5043 127.661 21.8804 129.632 21.9025C134.237 21.9025 137.204 19.7551 137.247 16.4126C137.27 14.5971 136.096 13.2024 133.572 12.0516C132.046 11.3208 131.116 10.834 131.116 10.0813C131.116 9.39478 131.912 8.68654 133.617 8.68654C135.056 8.66414 136.096 8.97407 136.893 9.30618L137.293 9.48337L137.89 6.00778Z" fill="#242424"/>
<path fill-rule="evenodd" clip-rule="evenodd" d="M149.113 5.63086H145.726C144.685 5.63086 143.889 5.9188 143.424 6.95904L136.938 21.6808H141.52C141.52 21.6808 142.272 19.6885 142.45 19.2679C142.959 19.2679 147.409 19.2679 148.05 19.2679C148.183 19.8213 148.582 21.6808 148.582 21.6808H152.633L149.113 5.63086ZM143.712 15.9691C144.065 15.0617 145.46 11.4973 145.46 11.4973C145.416 11.5418 145.814 10.5678 146.037 9.97022L146.324 11.3425C146.324 11.3425 147.165 15.1723 147.342 15.9691H143.712Z" fill="#242424"/>
<path fill-rule="evenodd" clip-rule="evenodd" d="M113.98 5.63086L109.687 16.567L109.243 14.3533C108.447 11.7853 105.945 9.01824 103.178 7.62358L107.096 21.6588H111.723L118.608 5.63086H113.98Z" fill="#242424"/>
<path fill-rule="evenodd" clip-rule="evenodd" d="M105.723 5.60938H98.6617L98.6172 5.96307C104.085 7.29162 107.738 10.5014 109.243 14.3535L107.693 6.98168C107.428 5.96307 106.675 5.6535 105.723 5.60938Z" fill="#989898"/>
<path fill-rule="evenodd" clip-rule="evenodd" d="M193.565 24.2411H181.711V2.94092H193.565V24.2411Z" fill="#6A6A6A"/>
<path fill-rule="evenodd" clip-rule="evenodd" d="M182.465 13.5908C182.465 9.26893 184.487 5.42087 187.638 2.93989C185.333 1.12601 182.427 0.043457 179.266 0.043457C171.785 0.043457 165.72 6.10856 165.72 13.5908C165.72 21.0726 171.785 27.1372 179.266 27.1372C182.427 27.1372 185.333 26.0551 187.638 24.2412C184.487 21.7606 182.465 17.9114 182.465 13.5908Z" fill="#505050"/>
<path fill-rule="evenodd" clip-rule="evenodd" d="M209.557 13.5908C209.557 21.0726 203.492 27.1372 196.011 27.1372C192.85 27.1372 189.943 26.0551 187.638 24.2412C190.79 21.7606 192.812 17.9114 192.812 13.5908C192.812 9.26893 190.79 5.42087 187.638 2.93989C189.943 1.12601 192.85 0.043457 196.011 0.043457C203.492 0.043457 209.557 6.10856 209.557 13.5908Z" fill="#989898"/>
<path d="M204.449 14.2693C204.449 13.5906 204.877 13.0481 205.572 13.0481C206.235 13.0481 206.671 13.5685 206.671 14.2693C206.671 14.97 206.235 15.4905 205.572 15.4905C204.877 15.4905 204.449 14.9476 204.449 14.2693ZM207.366 14.2693V11.021H206.641V12.9052C206.393 12.5818 205.986 12.378 205.473 12.378C204.464 12.378 203.696 13.1685 203.696 14.2693C203.696 15.3702 204.464 16.1602 205.473 16.1602C205.986 16.1602 206.393 15.9567 206.641 15.633V16.0704H207.366V14.2693ZM197.177 14.2693C197.177 13.5906 197.608 13.0481 198.3 13.0481C198.963 13.0481 199.4 13.5685 199.4 14.2693C199.4 14.97 198.963 15.4905 198.3 15.4905C197.608 15.4905 197.177 14.9476 197.177 14.2693ZM200.093 14.2693V12.4689H199.371V12.9052C199.122 12.5818 198.714 12.378 198.202 12.378C197.193 12.378 196.423 13.1685 196.423 14.2693C196.423 15.3702 197.193 16.1602 198.202 16.1602C198.714 16.1602 199.122 15.9567 199.371 15.633V16.0704H200.093V14.2693ZM202.866 12.378C202.413 12.378 202.09 12.5896 201.887 12.9052V12.4689H201.171V16.0704H201.895V14.0426C201.895 13.4481 202.181 13.0634 202.692 13.0634C202.851 13.0634 203.016 13.0858 203.183 13.1542L203.424 12.4759C203.251 12.4083 203.024 12.378 202.866 12.378ZM175.062 14.2693C175.062 13.5906 175.491 13.0481 176.185 13.0481C176.848 13.0481 177.284 13.5685 177.284 14.2693C177.284 14.97 176.848 15.4905 176.185 15.4905C175.491 15.4905 175.062 14.9476 175.062 14.2693ZM177.978 14.2693V12.4689H177.256V12.9052C177.006 12.5818 176.599 12.378 176.087 12.378C175.077 12.378 174.308 13.1685 174.308 14.2693C174.308 15.3702 175.077 16.1602 176.087 16.1602C176.599 16.1602 177.006 15.9567 177.256 15.633V16.0704H177.978V14.2693ZM187.727 13.0481C188.263 13.0481 188.625 13.3951 188.678 13.96H186.733C186.802 13.4328 187.147 13.0481 187.727 13.0481ZM187.744 12.378C186.688 12.378 185.965 13.1385 185.965 14.2615C185.965 15.4067 186.719 16.1602 187.796 16.1602C188.338 16.1602 188.836 16.0252 189.272 15.6558L188.889 15.1215C188.588 15.3611 188.203 15.4969 187.841 15.4969C187.337 15.4969 186.824 15.2109 186.733 14.5632H189.424C189.43 14.4649 189.439 14.3676 189.439 14.2615C189.43 13.1385 188.754 12.378 187.744 12.378ZM192.807 14.2693C192.807 15.3611 193.538 16.1602 194.698 16.1602C195.241 16.1602 195.602 16.0399 195.994 15.7313L195.618 15.1656C195.323 15.3765 195.015 15.4905 194.676 15.4905C194.05 15.4826 193.561 14.9932 193.561 14.2693C193.561 13.5461 194.05 13.0559 194.676 13.0481C195.015 13.0481 195.323 13.1621 195.618 13.3729L195.994 12.8072C195.602 12.4987 195.241 12.378 194.698 12.378C193.538 12.378 192.807 13.177 192.807 14.2693ZM181.88 12.7552C181.504 12.5055 180.984 12.378 180.412 12.378C179.5 12.378 178.942 12.8072 178.942 13.5234C178.942 14.1111 179.349 14.4649 180.156 14.5785L180.525 14.6308C180.954 14.6914 181.188 14.8418 181.188 15.0452C181.188 15.3245 180.872 15.5047 180.337 15.5047C179.771 15.5047 179.402 15.3315 179.139 15.1278L178.769 15.6935C179.305 16.085 179.944 16.1602 180.329 16.1602C181.369 16.1602 181.941 15.6786 181.941 14.9932C181.941 14.3602 181.504 14.036 180.713 13.9223L180.343 13.8695C180.005 13.8239 179.704 13.7192 179.704 13.4781C179.704 13.2148 179.99 13.0338 180.42 13.0338C180.88 13.0338 181.323 13.207 181.543 13.3419L181.88 12.7552ZM191.986 12.378C191.534 12.378 191.209 12.5896 191.005 12.9052V12.4689H190.291V16.0704H191.014V14.0426C191.014 13.4481 191.3 13.0634 191.812 13.0634C191.97 13.0634 192.137 13.0858 192.302 13.1542L192.543 12.4759C192.369 12.4083 192.144 12.378 191.986 12.378ZM185.303 12.4689H183.991V11.3759H183.26V12.4689H182.498V13.1243H183.26V14.826C183.26 15.6637 183.554 16.1602 184.481 16.1602C184.82 16.1602 185.211 16.0551 185.46 15.8816L185.234 15.2419C185.001 15.3765 184.744 15.4453 184.541 15.4453C184.149 15.4453 183.991 15.2029 183.991 14.8418V13.1243H185.303V12.4689ZM173.562 16.0704V13.8019C173.562 12.9508 173.049 12.3847 172.175 12.378C171.717 12.3705 171.242 12.5145 170.91 13.0181C170.662 12.6191 170.269 12.378 169.72 12.378C169.335 12.378 168.928 12.4834 168.635 12.9052V12.4689H167.912V16.0704H168.642V14.0049C168.642 13.3804 169.019 13.0481 169.554 13.0481C170.073 13.0481 170.367 13.3872 170.367 13.9975V16.0704H171.099V14.0049C171.099 13.3804 171.49 13.0481 172.01 13.0481C172.546 13.0481 172.832 13.3872 172.832 13.9975V16.0704H173.562Z" fill="white"/>
<path fill-rule="evenodd" clip-rule="evenodd" d="M223.337 5.45068H228.503C230.143 5.45068 230.892 6.6368 231.303 7.99417L233.485 15.1955H233.916L236.098 7.99417C236.507 6.64696 237.247 5.46868 238.863 5.45106L238.898 5.45068H240.682H243.983V21.7946H238.863V12.0957H238.505L235.484 21.7946H231.917L228.897 12.0957H228.457V21.7946H223.337V5.45068ZM269.967 16.6053H275.508C277.908 16.6053 279.968 15.0673 280.75 12.9285H269.967H264.846V16.6053V21.7946H269.967V16.6053ZM246.135 5.45068H251.255V15.1492H251.922C252.965 12.7669 253.99 10.3865 255.017 7.99417C255.716 6.36571 256.406 5.65524 258.138 5.45068H259.922H262.532V21.7946H257.411V12.0957H256.906C255.864 14.4783 254.838 16.8587 253.811 19.2512C253.141 20.8119 252.401 21.6409 250.689 21.7946H248.906H246.135V5.45068Z" fill="#242424"/>
<path fill-rule="evenodd" clip-rule="evenodd" d="M280.963 12.1911C281.042 11.8157 281.085 11.4268 281.085 11.0282C281.085 7.96051 278.575 5.45068 275.508 5.45068H264.121L264.296 6.18547C265.085 9.48834 268.434 12.1911 271.737 12.1911H280.963Z" fill="#6A6A6A"/>
</g>
<defs>
<clipPath id="clip0_512_790">
<rect width="281.43" height="27.9994" fill="white" transform="translate(0.569824 0.000488281)"/>
</clipPath>
</defs>
</svg>
