<svg width="17" height="17" viewBox="0 0 17 17" fill="none" xmlns="http://www.w3.org/2000/svg">
<g clip-path="url(#clip0_567_156)">
<path d="M5.21184 2.65625C5.07923 2.65625 4.95205 2.70893 4.85828 2.8027C4.76451 2.89646 4.71184 3.02364 4.71184 3.15625V11.9493L3.56535 10.8027C3.47159 10.709 3.34443 10.6564 3.21184 10.6564C3.07925 10.6564 2.95208 10.709 2.85832 10.8027C2.76457 10.8965 2.71191 11.0237 2.71191 11.1562C2.71191 11.2888 2.76457 11.416 2.85832 11.5098L4.85832 13.5098C4.95207 13.6035 5.07923 13.6562 5.21184 13.6562C5.34444 13.6562 5.4716 13.6035 5.56535 13.5098L7.56535 11.5098C7.6591 11.416 7.71176 11.2888 7.71176 11.1562C7.71176 11.0237 7.6591 10.8965 7.56535 10.8027C7.47159 10.709 7.34443 10.6564 7.21184 10.6564C7.07925 10.6564 6.95209 10.709 6.85832 10.8027L5.71184 11.9493V3.15625C5.71184 3.02364 5.65916 2.89646 5.56539 2.8027C5.47162 2.70893 5.34444 2.65625 5.21184 2.65625ZM11.2119 2.65625C11.0793 2.65628 10.9521 2.70897 10.8584 2.80273L8.85832 4.80273C8.76457 4.8965 8.71191 5.02366 8.71191 5.15625C8.71191 5.28884 8.76457 5.416 8.85832 5.50977C8.95209 5.60351 9.07925 5.65617 9.21184 5.65617C9.34443 5.65617 9.47159 5.60351 9.56535 5.50977L10.7119 4.36328V13.1562C10.7119 13.2888 10.7646 13.416 10.8583 13.5098C10.9521 13.6035 11.0793 13.6562 11.2119 13.6562C11.3445 13.6562 11.4717 13.6035 11.5654 13.5098C11.6592 13.416 11.7119 13.2888 11.7119 13.1562V4.36328L12.8584 5.50977C12.9521 5.60351 13.0793 5.65617 13.2119 5.65617C13.3445 5.65617 13.4716 5.60351 13.5654 5.50977C13.6591 5.416 13.7118 5.28884 13.7118 5.15625C13.7118 5.02366 13.6591 4.8965 13.5654 4.80273L11.5654 2.80273C11.5606 2.80062 11.5557 2.79859 11.5508 2.79663C11.4597 2.7086 11.3385 2.65843 11.2119 2.65625Z" fill="#4D4D4D"/>
</g>
<defs>
<clipPath id="clip0_567_156">
<rect width="16" height="16" fill="white" transform="translate(0.211914 0.15625)"/>
</clipPath>
</defs>
</svg>
