<svg width="13" height="14" viewBox="0 0 13 14" fill="none" xmlns="http://www.w3.org/2000/svg">
<path d="M8.59669 5.0001L8.36602 11.0001M5.17402 11.0001L4.94335 5.0001M11.5887 2.8601C11.8167 2.89477 12.0434 2.93144 12.27 2.97077M11.5887 2.8601L10.8767 12.1154C10.8476 12.4923 10.6774 12.8442 10.4 13.1009C10.1227 13.3577 9.75862 13.5002 9.38069 13.5001H4.15935C3.78142 13.5002 3.41737 13.3577 3.14001 13.1009C2.86264 12.8442 2.69241 12.4923 2.66335 12.1154L1.95135 2.8601M11.5887 2.8601C10.8193 2.74378 10.0459 2.6555 9.27002 2.59544M1.95135 2.8601C1.72335 2.8941 1.49669 2.93077 1.27002 2.9701M1.95135 2.8601C2.72078 2.74378 3.49418 2.6555 4.27002 2.59544M9.27002 2.59544V1.98477C9.27002 1.1981 8.66335 0.542103 7.87669 0.517437C7.1391 0.493862 6.40094 0.493862 5.66335 0.517437C4.87669 0.542103 4.27002 1.19877 4.27002 1.98477V2.59544M9.27002 2.59544C7.60583 2.46682 5.93421 2.46682 4.27002 2.59544" stroke="#111827" stroke-linecap="round" stroke-linejoin="round"/>
</svg>
